<svg width="1024" height="1024" viewBox="0 0 1024 1024" fill="none" xmlns="http://www.w3.org/2000/svg">
<mask id="mask0_3323_108" style="mask-type:alpha" maskUnits="userSpaceOnUse" x="0" y="0" width="1024" height="1024">
<rect width="1024" height="1024" fill="#D9D9D9"/>
</mask>
<g mask="url(#mask0_3323_108)">
<rect width="1024" height="1024" rx="80" fill="#1E1E2E"/>
<path d="M201.667 22.5H822.333C921.284 22.5 1001.5 102.716 1001.5 201.667V822.333C1001.5 921.284 921.284 1001.5 822.333 1001.5H201.667C102.716 1001.5 22.5 921.284 22.5 822.333V201.667C22.5 102.716 102.716 22.5 201.667 22.5Z" fill="#5D5FEF" fill-opacity="0.2" stroke="#5D5FEF"/>
<path d="M64.1845 67.5224L55.9077 22H19.4897L27.7665 67.5224" stroke="white" stroke-width="3.5" stroke-linecap="round" stroke-linejoin="round"/>
<path d="M44.4031 62.5149L24.6008 80.2555L24.6008 44.7743L44.4031 62.5149Z" fill="white"/>
<path d="M79 62.5149L59.1978 80.2555L59.1978 44.7743L79 62.5149Z" fill="white"/>
<path d="M187.142 454.942H160.975C153.809 454.942 148 459.818 148 465.834V806.729C148 812.744 153.809 817.621 160.975 817.621H187.142C194.307 817.621 200.116 812.744 200.116 806.729V465.834C200.116 459.818 194.307 454.942 187.142 454.942Z" fill="url(#paint0_linear_3323_108)"/>
<path d="M274.002 389H247.835C240.669 389 234.86 393.877 234.86 399.892V806.729C234.86 812.744 240.669 817.621 247.835 817.621H274.002C281.168 817.621 286.977 812.744 286.977 806.729V399.892C286.977 393.877 281.168 389 274.002 389Z" fill="url(#paint1_linear_3323_108)"/>
<path d="M360.863 487.913H334.695C327.53 487.913 321.721 492.79 321.721 498.805V806.729C321.721 812.745 327.53 817.622 334.695 817.622H360.863C368.028 817.622 373.837 812.745 373.837 806.729V498.805C373.837 492.79 368.028 487.913 360.863 487.913Z" fill="url(#paint2_linear_3323_108)"/>
<path d="M447.723 421.97H421.556C414.39 421.97 408.581 426.847 408.581 432.862V806.728C408.581 812.743 414.39 817.62 421.556 817.62H447.723C454.889 817.62 460.698 812.743 460.698 806.728V432.862C460.698 426.847 454.889 421.97 447.723 421.97Z" fill="url(#paint3_linear_3323_108)"/>
<path d="M534.584 553.855H508.416C501.251 553.855 495.442 558.731 495.442 564.747V806.729C495.442 812.745 501.251 817.622 508.416 817.622H534.584C541.749 817.622 547.558 812.745 547.558 806.729V564.747C547.558 558.731 541.749 553.855 534.584 553.855Z" fill="url(#paint4_linear_3323_108)"/>
<path d="M621.443 619.796H595.276C588.11 619.796 582.302 624.673 582.302 630.689V806.729C582.302 812.745 588.11 817.621 595.276 817.621H621.443C628.609 817.621 634.418 812.745 634.418 806.729V630.689C634.418 624.673 628.609 619.796 621.443 619.796Z" fill="url(#paint5_linear_3323_108)"/>
<path d="M708.305 718.709H682.137C674.972 718.709 669.163 723.586 669.163 729.602V806.729C669.163 812.745 674.972 817.622 682.137 817.622H708.305C715.47 817.622 721.279 812.745 721.279 806.729V729.602C721.279 723.586 715.47 718.709 708.305 718.709Z" fill="url(#paint6_linear_3323_108)"/>
<path d="M795.165 751.679H768.998C761.832 751.679 756.023 756.556 756.023 762.572V806.729C756.023 812.744 761.832 817.621 768.998 817.621H795.165C802.331 817.621 808.139 812.744 808.139 806.729V762.572C808.139 756.556 802.331 751.679 795.165 751.679Z" fill="url(#paint7_linear_3323_108)"/>
<path d="M882.026 784.649H855.858C848.693 784.649 842.884 789.526 842.884 795.542V806.728C842.884 812.743 848.693 817.62 855.858 817.62H882.026C889.191 817.62 895 812.743 895 806.728V795.542C895 789.526 889.191 784.649 882.026 784.649Z" fill="url(#paint8_linear_3323_108)"/>
<path d="M63.4262 451V237.64C74.0662 234.56 87.7862 231.76 104.586 229.24C121.386 226.44 139.026 225.04 157.506 225.04C182.706 225.04 202.306 229.38 216.306 238.06C230.306 246.46 240.106 258.22 245.706 273.34C251.306 288.46 254.106 306.1 254.106 326.26V451H191.526V333.82C191.526 320.38 190.406 309.6 188.166 301.48C185.926 293.36 182.006 287.48 176.406 283.84C171.086 280.2 163.526 278.38 153.726 278.38C149.246 278.38 144.486 278.66 139.446 279.22C134.406 279.5 129.926 279.92 126.006 280.48V451H63.4262Z" fill="white"/>
<path d="M277.15 528.7V237.64C284.71 235.4 293.53 233.3 303.61 231.34C313.97 229.38 324.61 227.84 335.53 226.72C346.73 225.6 357.37 225.04 367.45 225.04C391.81 225.04 412.53 229.8 429.61 239.32C446.69 248.56 459.71 261.86 468.67 279.22C477.91 296.58 482.53 317.02 482.53 340.54C482.53 363.22 478.75 383.24 471.19 400.6C463.91 417.68 453.13 431.12 438.85 440.92C424.57 450.44 406.93 455.2 385.93 455.2C377.25 455.2 369.13 454.36 361.57 452.68C354.01 451 346.73 448.62 339.73 445.54V528.7H277.15ZM374.17 402.28C381.73 402.28 388.17 401.02 393.49 398.5C399.09 395.98 403.71 392.2 407.35 387.16C411.27 382.12 414.07 375.96 415.75 368.68C417.71 361.12 418.69 352.3 418.69 342.22C418.69 329.34 416.73 318.14 412.81 308.62C408.89 299.1 403.15 291.68 395.59 286.36C388.03 281.04 378.51 278.38 367.03 278.38C361.43 278.38 356.25 278.66 351.49 279.22C346.73 279.5 342.81 279.92 339.73 280.48V393.46C343.65 395.98 348.69 398.08 354.85 399.76C361.29 401.44 367.73 402.28 374.17 402.28ZM585.227 455.2C561.147 454.64 542.667 451.28 529.787 445.12C517.187 438.96 508.507 430.28 503.747 419.08C499.267 407.6 497.027 394.02 497.027 378.34V135.16L559.607 125.08V365.74C559.607 376.94 561.567 385.76 565.487 392.2C569.687 398.64 579.207 402.42 594.047 403.54L585.227 455.2ZM682.69 455.62C663.65 455.62 646.99 453.38 632.71 448.9C618.43 444.14 607.37 436.44 599.53 425.8C591.69 415.16 587.77 400.88 587.77 382.96C587.77 365.6 592.11 351.88 600.79 341.8C609.75 331.72 621.37 324.58 635.65 320.38C649.93 315.9 665.05 313.66 681.01 313.66C689.13 313.66 696.27 314.08 702.43 314.92C708.87 315.48 714.05 316.32 717.97 317.44V311.56C717.97 304.28 716.57 298.12 713.77 293.08C710.97 287.76 706.35 283.7 699.91 280.9C693.75 277.82 685.35 276.28 674.71 276.28C664.07 276.28 653.57 277.12 643.21 278.8C632.85 280.2 623.89 282.3 616.33 285.1L608.35 234.7C615.63 232.46 625.99 230.22 639.43 227.98C653.15 225.46 667.29 224.2 681.85 224.2C706.49 224.2 725.81 227.84 739.81 235.12C753.81 242.4 763.61 252.9 769.21 266.62C775.09 280.06 778.03 296.02 778.03 314.5V444.7C769.07 446.66 756.61 448.9 740.65 451.42C724.69 454.22 705.37 455.62 682.69 455.62ZM686.89 407.32C693.05 407.32 698.93 407.18 704.53 406.9C710.13 406.62 714.61 406.2 717.97 405.64V358.18C715.45 357.62 711.67 357.06 706.63 356.5C701.59 355.94 696.97 355.66 692.77 355.66C684.93 355.66 677.79 356.36 671.35 357.76C664.91 359.16 659.73 361.68 655.81 365.32C651.89 368.96 649.93 374.28 649.93 381.28C649.93 391.08 653.15 397.94 659.59 401.86C666.31 405.5 675.41 407.32 686.89 407.32ZM815.846 528.7C806.046 528.7 796.946 527.72 788.546 525.76C780.426 524.08 773.706 522.12 768.386 519.88L779.306 469.9C785.746 472.14 791.486 473.68 796.526 474.52C801.566 475.36 806.886 475.78 812.486 475.78C820.046 475.78 826.346 474.38 831.386 471.58C836.426 469.06 840.626 465.14 843.986 459.82C847.626 454.78 850.846 448.76 853.646 441.76C844.126 423 834.606 402.84 825.086 381.28C815.566 359.72 806.186 336.34 796.946 311.14C787.706 285.94 778.886 258.92 770.486 230.08H836.846C839.646 241 842.866 252.9 846.506 265.78C850.426 278.38 854.486 291.26 858.686 304.42C862.886 317.3 867.086 329.9 871.286 342.22C875.766 354.54 879.966 365.74 883.886 375.82C888.926 362.38 893.966 347.12 899.006 330.04C904.326 312.96 909.366 295.74 914.126 278.38C919.166 260.74 923.506 244.64 927.146 230.08H991.826C983.426 258.36 974.746 285.52 965.786 311.56C957.106 337.6 947.866 362.66 938.066 386.74C928.546 410.82 918.326 434.62 907.406 458.14C899.566 474.66 891.586 488.1 883.466 498.46C875.346 509.1 865.966 516.8 855.326 521.56C844.686 526.32 831.526 528.7 815.846 528.7Z" fill="#5D5FEF"/>
</g>
<defs>
<linearGradient id="paint0_linear_3323_108" x1="174.058" y1="454.942" x2="174.058" y2="817.621" gradientUnits="userSpaceOnUse">
<stop stop-color="#8AFF80" stop-opacity="0"/>
<stop offset="1" stop-color="#8AFF80"/>
</linearGradient>
<linearGradient id="paint1_linear_3323_108" x1="260.919" y1="389" x2="260.919" y2="817.621" gradientUnits="userSpaceOnUse">
<stop stop-color="#8AFF80" stop-opacity="0"/>
<stop offset="1" stop-color="#8AFF80"/>
</linearGradient>
<linearGradient id="paint2_linear_3323_108" x1="347.779" y1="487.913" x2="347.779" y2="817.622" gradientUnits="userSpaceOnUse">
<stop stop-color="#8AFF80" stop-opacity="0"/>
<stop offset="1" stop-color="#8AFF80"/>
</linearGradient>
<linearGradient id="paint3_linear_3323_108" x1="434.64" y1="421.97" x2="434.64" y2="817.62" gradientUnits="userSpaceOnUse">
<stop stop-color="#8AFF80" stop-opacity="0"/>
<stop offset="1" stop-color="#8AFF80"/>
</linearGradient>
<linearGradient id="paint4_linear_3323_108" x1="521.5" y1="553.855" x2="521.5" y2="817.622" gradientUnits="userSpaceOnUse">
<stop stop-color="#8AFF80" stop-opacity="0"/>
<stop offset="1" stop-color="#8AFF80"/>
</linearGradient>
<linearGradient id="paint5_linear_3323_108" x1="608.36" y1="619.796" x2="608.36" y2="817.621" gradientUnits="userSpaceOnUse">
<stop stop-color="#8AFF80" stop-opacity="0"/>
<stop offset="1" stop-color="#8AFF80"/>
</linearGradient>
<linearGradient id="paint6_linear_3323_108" x1="695.221" y1="718.709" x2="695.221" y2="817.622" gradientUnits="userSpaceOnUse">
<stop stop-color="#8AFF80" stop-opacity="0"/>
<stop offset="1" stop-color="#8AFF80"/>
</linearGradient>
<linearGradient id="paint7_linear_3323_108" x1="782.081" y1="751.679" x2="782.081" y2="817.621" gradientUnits="userSpaceOnUse">
<stop stop-color="#8AFF80" stop-opacity="0"/>
<stop offset="1" stop-color="#8AFF80"/>
</linearGradient>
<linearGradient id="paint8_linear_3323_108" x1="868.942" y1="784.649" x2="868.942" y2="817.62" gradientUnits="userSpaceOnUse">
<stop stop-color="#8AFF80" stop-opacity="0"/>
<stop offset="1" stop-color="#8AFF80"/>
</linearGradient>
</defs>
</svg>
