<svg width="1024" height="1024" viewBox="0 0 1024 1024" fill="none" xmlns="http://www.w3.org/2000/svg">
<mask id="mask0_3327_8" style="mask-type:alpha" maskUnits="userSpaceOnUse" x="0" y="0" width="1024" height="1024">
<rect width="1024" height="1024" fill="#D9D9D9"/>
</mask>
<g mask="url(#mask0_3327_8)">
<rect width="1024" height="1024" rx="80" fill="#1E1E2E"/>
<path d="M673 512L431.5 728.506L431.5 295.494L673 512Z" fill="white"/>
<path d="M187.142 454.942H160.975C153.809 454.942 148 459.818 148 465.834V806.729C148 812.744 153.809 817.621 160.975 817.621H187.142C194.307 817.621 200.116 812.744 200.116 806.729V465.834C200.116 459.818 194.307 454.942 187.142 454.942Z" fill="url(#paint0_linear_3327_8)"/>
<path d="M274.002 389H247.835C240.669 389 234.86 393.877 234.86 399.893V806.729C234.86 812.744 240.669 817.621 247.835 817.621H274.002C281.168 817.621 286.977 812.744 286.977 806.729V399.893C286.977 393.877 281.168 389 274.002 389Z" fill="url(#paint1_linear_3327_8)"/>
<path d="M360.862 487.913H334.695C327.53 487.913 321.721 492.79 321.721 498.805V806.729C321.721 812.745 327.53 817.622 334.695 817.622H360.862C368.028 817.622 373.837 812.745 373.837 806.729V498.805C373.837 492.79 368.028 487.913 360.862 487.913Z" fill="url(#paint2_linear_3327_8)"/>
<path d="M447.723 421.97H421.556C414.39 421.97 408.582 426.847 408.582 432.862V806.728C408.582 812.744 414.39 817.62 421.556 817.62H447.723C454.889 817.62 460.698 812.744 460.698 806.728V432.862C460.698 426.847 454.889 421.97 447.723 421.97Z" fill="url(#paint3_linear_3327_8)"/>
<path d="M534.584 553.855H508.416C501.251 553.855 495.442 558.731 495.442 564.747V806.729C495.442 812.745 501.251 817.621 508.416 817.621H534.584C541.749 817.621 547.558 812.745 547.558 806.729V564.747C547.558 558.731 541.749 553.855 534.584 553.855Z" fill="url(#paint4_linear_3327_8)"/>
<path d="M621.443 619.796H595.276C588.111 619.796 582.302 624.673 582.302 630.688V806.729C582.302 812.744 588.111 817.621 595.276 817.621H621.443C628.609 817.621 634.418 812.744 634.418 806.729V630.688C634.418 624.673 628.609 619.796 621.443 619.796Z" fill="url(#paint5_linear_3327_8)"/>
<path d="M708.304 718.709H682.137C674.971 718.709 669.163 723.586 669.163 729.602V806.729C669.163 812.745 674.971 817.622 682.137 817.622H708.304C715.47 817.622 721.279 812.745 721.279 806.729V729.602C721.279 723.586 715.47 718.709 708.304 718.709Z" fill="url(#paint6_linear_3327_8)"/>
<path d="M795.166 751.679H768.998C761.833 751.679 756.024 756.556 756.024 762.571V806.728C756.024 812.744 761.833 817.621 768.998 817.621H795.166C802.331 817.621 808.14 812.744 808.14 806.728V762.571C808.14 756.556 802.331 751.679 795.166 751.679Z" fill="url(#paint7_linear_3327_8)"/>
<path d="M882.026 784.649H855.859C848.693 784.649 842.884 789.526 842.884 795.541V806.727C842.884 812.743 848.693 817.62 855.859 817.62H882.026C889.192 817.62 895.001 812.743 895.001 806.727V795.541C895.001 789.526 889.192 784.649 882.026 784.649Z" fill="url(#paint8_linear_3327_8)"/>
<path d="M63.4262 695V481.64C74.0662 478.56 87.7862 475.76 104.586 473.24C121.386 470.44 139.026 469.04 157.506 469.04C182.706 469.04 202.306 473.38 216.306 482.06C230.306 490.46 240.106 502.22 245.706 517.34C251.306 532.46 254.106 550.1 254.106 570.26V695H191.526V577.82C191.526 564.38 190.406 553.6 188.166 545.48C185.926 537.36 182.006 531.48 176.406 527.84C171.086 524.2 163.526 522.38 153.726 522.38C149.246 522.38 144.486 522.66 139.446 523.22C134.406 523.5 129.926 523.92 126.006 524.48V695H63.4262Z" fill="white"/>
<path d="M277.15 772.7V481.64C284.71 479.4 293.53 477.3 303.61 475.34C313.97 473.38 324.61 471.84 335.53 470.72C346.73 469.6 357.37 469.04 367.45 469.04C391.81 469.04 412.53 473.8 429.61 483.32C446.69 492.56 459.71 505.86 468.67 523.22C477.91 540.58 482.53 561.02 482.53 584.54C482.53 607.22 478.75 627.24 471.19 644.6C463.91 661.68 453.13 675.12 438.85 684.92C424.57 694.44 406.93 699.2 385.93 699.2C377.25 699.2 369.13 698.36 361.57 696.68C354.01 695 346.73 692.62 339.73 689.54V772.7H277.15ZM374.17 646.28C381.73 646.28 388.17 645.02 393.49 642.5C399.09 639.98 403.71 636.2 407.35 631.16C411.27 626.12 414.07 619.96 415.75 612.68C417.71 605.12 418.69 596.3 418.69 586.22C418.69 573.34 416.73 562.14 412.81 552.62C408.89 543.1 403.15 535.68 395.59 530.36C388.03 525.04 378.51 522.38 367.03 522.38C361.43 522.38 356.25 522.66 351.49 523.22C346.73 523.5 342.81 523.92 339.73 524.48V637.46C343.65 639.98 348.69 642.08 354.85 643.76C361.29 645.44 367.73 646.28 374.17 646.28ZM585.227 699.2C561.147 698.64 542.667 695.28 529.787 689.12C517.187 682.96 508.507 674.28 503.747 663.08C499.267 651.6 497.027 638.02 497.027 622.34V379.16L559.607 369.08V609.74C559.607 620.94 561.567 629.76 565.487 636.2C569.687 642.64 579.207 646.42 594.047 647.54L585.227 699.2ZM682.69 699.62C663.65 699.62 646.99 697.38 632.71 692.9C618.43 688.14 607.37 680.44 599.53 669.8C591.69 659.16 587.77 644.88 587.77 626.96C587.77 609.6 592.11 595.88 600.79 585.8C609.75 575.72 621.37 568.58 635.65 564.38C649.93 559.9 665.05 557.66 681.01 557.66C689.13 557.66 696.27 558.08 702.43 558.92C708.87 559.48 714.05 560.32 717.97 561.44V555.56C717.97 548.28 716.57 542.12 713.77 537.08C710.97 531.76 706.35 527.7 699.91 524.9C693.75 521.82 685.35 520.28 674.71 520.28C664.07 520.28 653.57 521.12 643.21 522.8C632.85 524.2 623.89 526.3 616.33 529.1L608.35 478.7C615.63 476.46 625.99 474.22 639.43 471.98C653.15 469.46 667.29 468.2 681.85 468.2C706.49 468.2 725.81 471.84 739.81 479.12C753.81 486.4 763.61 496.9 769.21 510.62C775.09 524.06 778.03 540.02 778.03 558.5V688.7C769.07 690.66 756.61 692.9 740.65 695.42C724.69 698.22 705.37 699.62 682.69 699.62ZM686.89 651.32C693.05 651.32 698.93 651.18 704.53 650.9C710.13 650.62 714.61 650.2 717.97 649.64V602.18C715.45 601.62 711.67 601.06 706.63 600.5C701.59 599.94 696.97 599.66 692.77 599.66C684.93 599.66 677.79 600.36 671.35 601.76C664.91 603.16 659.73 605.68 655.81 609.32C651.89 612.96 649.93 618.28 649.93 625.28C649.93 635.08 653.15 641.94 659.59 645.86C666.31 649.5 675.41 651.32 686.89 651.32ZM815.846 772.7C806.046 772.7 796.946 771.72 788.546 769.76C780.426 768.08 773.706 766.12 768.386 763.88L779.306 713.9C785.746 716.14 791.486 717.68 796.526 718.52C801.566 719.36 806.886 719.78 812.486 719.78C820.046 719.78 826.346 718.38 831.386 715.58C836.426 713.06 840.626 709.14 843.986 703.82C847.626 698.78 850.846 692.76 853.646 685.76C844.126 667 834.606 646.84 825.086 625.28C815.566 603.72 806.186 580.34 796.946 555.14C787.706 529.94 778.886 502.92 770.486 474.08H836.846C839.646 485 842.866 496.9 846.506 509.78C850.426 522.38 854.486 535.26 858.686 548.42C862.886 561.3 867.086 573.9 871.286 586.22C875.766 598.54 879.966 609.74 883.886 619.82C888.926 606.38 893.966 591.12 899.006 574.04C904.326 556.96 909.366 539.74 914.126 522.38C919.166 504.74 923.506 488.64 927.146 474.08H991.826C983.426 502.36 974.746 529.52 965.786 555.56C957.106 581.6 947.866 606.66 938.066 630.74C928.546 654.82 918.326 678.62 907.406 702.14C899.566 718.66 891.586 732.1 883.466 742.46C875.346 753.1 865.966 760.8 855.326 765.56C844.686 770.32 831.526 772.7 815.846 772.7Z" fill="#5D5FEF"/>
</g>
<defs>
<linearGradient id="paint0_linear_3327_8" x1="174.058" y1="454.942" x2="174.058" y2="817.621" gradientUnits="userSpaceOnUse">
<stop stop-color="#8AFF80" stop-opacity="0"/>
<stop offset="1" stop-color="#8AFF80"/>
</linearGradient>
<linearGradient id="paint1_linear_3327_8" x1="260.918" y1="389" x2="260.918" y2="817.621" gradientUnits="userSpaceOnUse">
<stop stop-color="#8AFF80" stop-opacity="0"/>
<stop offset="1" stop-color="#8AFF80"/>
</linearGradient>
<linearGradient id="paint2_linear_3327_8" x1="347.779" y1="487.913" x2="347.779" y2="817.622" gradientUnits="userSpaceOnUse">
<stop stop-color="#8AFF80" stop-opacity="0"/>
<stop offset="1" stop-color="#8AFF80"/>
</linearGradient>
<linearGradient id="paint3_linear_3327_8" x1="434.64" y1="421.97" x2="434.64" y2="817.62" gradientUnits="userSpaceOnUse">
<stop stop-color="#8AFF80" stop-opacity="0"/>
<stop offset="1" stop-color="#8AFF80"/>
</linearGradient>
<linearGradient id="paint4_linear_3327_8" x1="521.5" y1="553.855" x2="521.5" y2="817.621" gradientUnits="userSpaceOnUse">
<stop stop-color="#8AFF80" stop-opacity="0"/>
<stop offset="1" stop-color="#8AFF80"/>
</linearGradient>
<linearGradient id="paint5_linear_3327_8" x1="608.36" y1="619.796" x2="608.36" y2="817.621" gradientUnits="userSpaceOnUse">
<stop stop-color="#8AFF80" stop-opacity="0"/>
<stop offset="1" stop-color="#8AFF80"/>
</linearGradient>
<linearGradient id="paint6_linear_3327_8" x1="695.221" y1="718.709" x2="695.221" y2="817.622" gradientUnits="userSpaceOnUse">
<stop stop-color="#8AFF80" stop-opacity="0"/>
<stop offset="1" stop-color="#8AFF80"/>
</linearGradient>
<linearGradient id="paint7_linear_3327_8" x1="782.082" y1="751.679" x2="782.082" y2="817.621" gradientUnits="userSpaceOnUse">
<stop stop-color="#8AFF80" stop-opacity="0"/>
<stop offset="1" stop-color="#8AFF80"/>
</linearGradient>
<linearGradient id="paint8_linear_3327_8" x1="868.942" y1="784.649" x2="868.942" y2="817.62" gradientUnits="userSpaceOnUse">
<stop stop-color="#8AFF80" stop-opacity="0"/>
<stop offset="1" stop-color="#8AFF80"/>
</linearGradient>
</defs>
</svg>
